<svg xmlns="http://www.w3.org/2000/svg" fill="none" viewBox="0 0 207 243">
  <g class="MT-logo-mods" clip-path="url(#a)">
    <g fill="#FF5000" class="Subtract">
      <path d="m102.508 131.186-.008-.004h.015l-.007.004Z"/>
      <path fill-rule="evenodd" d="M184.157 44.898v105.557a27.66 27.66 0 0 0-11.256 1.367v.002c-3.88 1.3-7.295 3.456-10.2 6.376-2.686 2.653-4.746 5.742-6.11 9.234l-.01.027-.011.026c-.108.284-.21.571-.309.858l-10.136-10.207-.009-.009-.008-.009-.646-.623c-3.265-3.049-7.3-5.219-12.041-5.238l.001-.001-.045.001-.018-.001c-5.055-.026-9.313 2.388-12.677 5.752l-4.852 4.852-.023.025c-3.343 3.377-5.729 7.624-5.729 12.652 0 5.077 2.49 9.341 5.862 12.712l.004.004 15.102 15.078c-.48.268-.945.527-1.397.776l-1.309.715a82.248 82.248 0 0 0-3.99 2.278l-1.258.786a31.407 31.407 0 0 0-5.365 4.332c-2.663 2.664-4.686 5.763-5.802 9.303l-9.41 7.888-.015-.015-81.641-68.412V44.898l38.39-32.166h86.518l38.39 32.166ZM88.677 88.72l-37.201 2.45 28.466 23.586-8.79 36.146 31.356-19.716 31.356 19.716-8.791-36.146 28.466-23.587-37.2-2.45-13.824-34.655L88.677 88.72Z" clip-rule="evenodd"/>
    </g>
    <path fill="#fff" d="m144.814 207.277-23.968-23.931c-2.554-2.554-3.83-5.156-3.83-7.807 0-2.675 1.24-5.266 3.721-7.771l4.851-4.851c2.505-2.505 5.096-3.746 7.771-3.721 2.675 0 5.289 1.276 7.843 3.83l25.865 26.047-22.253 18.204Zm-2.153-15.614c.292.292.633.438 1.022.438.413 0 .766-.146 1.058-.438.267-.292.401-.62.401-.985.024-.389-.11-.73-.401-1.021l-14.52-14.52c-.243-.243-.571-.364-.984-.364a1.379 1.379 0 0 0-1.058.364 1.815 1.815 0 0 0-.438 1.095c0 .389.146.729.438 1.021l14.482 14.41Zm4.779-4.706c.268.292.608.426 1.022.401.437-.024.778-.158 1.021-.401.292-.316.438-.681.438-1.094 0-.414-.134-.754-.401-1.022l-14.483-14.446a1.321 1.321 0 0 0-1.058-.401c-.389 0-.717.134-.985.401a1.4 1.4 0 0 0-.438 1.021c.025.39.17.718.438.985l14.446 14.556Zm47.57 54.465c-.364.365-.778.523-1.24.474-.438-.048-.924-.206-1.459-.474l-12.221-6.676a3.653 3.653 0 0 1-1.496-1.35c-.364-.559-.547-1.118-.547-1.678l-.182-3.867-18.824-18.823 7.661-7.917 18.933 18.934 3.867.182c1.338.049 2.371.73 3.101 2.043l6.603 12.148c.316.584.486 1.094.51 1.532.049.462-.097.863-.437 1.204l-4.269 4.268Zm-72.303-3.174c-2.092-2.116-3.503-4.414-4.232-6.894-.705-2.481-.718-4.95-.037-7.406.706-2.456 2.104-4.73 4.196-6.822 1.337-1.337 2.736-2.468 4.195-3.392a71.636 71.636 0 0 1 4.815-2.809 284.776 284.776 0 0 0 5.874-3.284c2.164-1.264 4.596-2.845 7.296-4.742 2.723-1.921 5.788-4.341 9.193-7.26 3.429-2.918 7.284-6.517 11.564-10.798l3.174 3.174c-4.694 4.694-8.804 8.573-12.331 11.637-3.502 3.04-6.566 5.509-9.193 7.406-2.626 1.872-4.925 3.38-6.894 4.523a166.754 166.754 0 0 1-5.29 2.992 49.946 49.946 0 0 0-4.451 2.663c-1.386.924-2.845 2.14-4.377 3.648-2.019 2.018-3.028 4.28-3.028 6.785s1.046 4.828 3.137 6.968c2.116 2.091 4.426 3.125 6.931 3.101 2.53 0 4.804-1.022 6.822-3.065 1.508-1.508 2.724-2.967 3.648-4.377a46.224 46.224 0 0 0 2.663-4.414c.851-1.557 1.849-3.32 2.992-5.29 1.143-1.97 2.651-4.256 4.523-6.858 1.897-2.627 4.366-5.703 7.406-9.23 3.064-3.526 6.943-7.636 11.637-12.33l3.174 3.21c-4.281 4.28-7.88 8.135-10.799 11.564-2.918 3.405-5.338 6.469-7.259 9.193-1.921 2.7-3.514 5.132-4.779 7.296a234.367 234.367 0 0 0-3.247 5.837 61.567 61.567 0 0 1-2.809 4.816 25.1 25.1 0 0 1-3.429 4.231c-2.067 2.092-4.341 3.478-6.822 4.159-2.456.705-4.925.693-7.405-.036-2.457-.706-4.743-2.104-6.858-4.196Zm45.381-45.418c-2.092-2.091-3.672-4.426-4.742-7.004-1.071-2.602-1.63-5.253-1.679-7.953a20.998 20.998 0 0 1 1.387-7.916c.997-2.553 2.505-4.827 4.523-6.822 2.189-2.213 4.706-3.793 7.552-4.742 2.869-.973 5.837-1.301 8.901-.985 3.064.292 5.983 1.253 8.755 2.882l-3.575 3.575c-3.04-1.556-6.25-2.091-9.631-1.605-3.356.462-6.226 1.885-8.609 4.268-2.067 2.043-3.429 4.439-4.086 7.187-.632 2.748-.559 5.52.219 8.317.778 2.773 2.25 5.241 4.414 7.406 2.165 2.14 4.633 3.599 7.406 4.377 2.796.779 5.557.852 8.281.219 2.748-.632 5.156-1.97 7.223-4.013 1.581-1.58 2.736-3.392 3.465-5.435a16 16 0 0 0 .949-6.421c-.122-2.237-.693-4.402-1.715-6.493l3.539-3.575c1.629 2.797 2.59 5.739 2.882 8.828.316 3.064-.012 6.031-.985 8.901-.949 2.87-2.517 5.399-4.706 7.588-2.019 2.019-4.305 3.514-6.858 4.487a20.98 20.98 0 0 1-7.917 1.386c-2.723-.073-5.387-.644-7.989-1.714-2.578-1.07-4.912-2.651-7.004-4.743Zm11.054-16.379c-1.387-1.386-2.104-2.87-2.153-4.451-.048-1.581.608-3.04 1.97-4.377l7.588-7.625 3.32 3.21-7.041 6.968c-1.046 1.046-.985 2.165.182 3.356l4.451 4.487c1.094 1.119 2.189 1.119 3.283 0l6.968-6.894 3.21 3.173-7.661 7.698c-1.289 1.289-2.723 1.921-4.304 1.897-1.581-.025-3.052-.718-4.414-2.08l-5.399-5.362Zm-46.039 55.997c-1.24 0-2.298-.45-3.173-1.35-.876-.875-1.314-1.933-1.314-3.174 0-1.24.438-2.298 1.314-3.173.875-.876 1.933-1.314 3.173-1.314 1.241 0 2.299.438 3.174 1.314.9.875 1.35 1.933 1.35 3.173 0 1.241-.45 2.299-1.35 3.174-.875.9-1.933 1.35-3.174 1.35Z" class="􀤋"/>
  </g>
  <defs>
    <clipPath id="a" class="a">
      <path fill="#fff" d="M0 0h207v243H0z"/>
    </clipPath>
  </defs>
</svg>
