<svg xmlns="http://www.w3.org/2000/svg" fill="none" viewBox="0 0 180 180">
  <g class="MT-logo-small">
    <path fill="#FF5000" fill-rule="evenodd" d="M90.005 162.821 33.01 115.143V34.238l26.8-22.417h60.399l26.801 22.417v80.905l-56.995 47.688-.01-.01Zm0-68.448 21.895 13.743-6.137-25.192 19.872-16.438-25.97-1.707-9.65-24.153-9.661 24.153-25.97 1.707 19.873 16.438-6.137 25.192 21.885-13.743Z" class="Vector" clip-rule="evenodd"/>
    <g fill="#000" class="Vector (Stroke)">
      <path d="m99.666 64.78 25.97 1.706-19.873 16.439 6.136 25.191-21.894-13.743-21.885 13.743 6.137-25.191-19.873-16.439 25.97-1.707 9.66-24.153 9.652 24.153Zm-12.368 9.564-7.157.47 5.313 4.395-1.787 7.335 6.337-3.979 6.35 3.986-1.789-7.342 5.313-4.395-7.16-.47-2.708-6.78-2.712 6.78Z"/>
      <path d="m89.419 176.368-6.175-6.165-60.234-50.388v-90.25L56.18 1.821h67.66l33.17 27.744v41.63l-16.617 11.37 6.617-12.084V34.238l-26.801-22.417H59.81l-26.8 22.417v80.904l56.995 47.679.01.01-.596 13.537Z"/>
    </g>
    <path fill="#000" d="M133.978 66.378c4.443-1.5 9.047-2.003 13.725-1.53l.001-.001a32.12 32.12 0 0 1 6.42 1.28 8.898 8.898 0 0 1 3.672 14.791l-10.059 10.06 3.677 3.676 10.197-10.199.209-.202a8.896 8.896 0 0 1 14.549 3.763 32.492 32.492 0 0 1 1.417 6.851l.004.04a.5.5 0 0 1 .005.037c.473 4.69-.037 9.308-1.547 13.762l-.001-.001c-1.521 4.571-4.039 8.601-7.457 12.019-3.129 3.129-6.768 5.53-10.88 7.097a32.616 32.616 0 0 1-12.36 2.148 33.843 33.843 0 0 1-7.221-.979c-.774.823-1.52 1.625-2.234 2.408a163.27 163.27 0 0 0-3.63 4.11l-.02.024a171.201 171.201 0 0 0-4.066 4.915 107.394 107.394 0 0 0-3.631 4.823l-.022.03c-2.045 2.873-3.679 5.375-4.935 7.52a254.794 254.794 0 0 0-3.524 6.329l.001.001a78.63 78.63 0 0 1-3.551 6.085l.001.001c-1.434 2.244-3.129 4.324-5.048 6.248l.001.001c-3.252 3.29-7.117 5.751-11.59 7v.002l-.046.012-.053.016-.001-.002c-4.371 1.235-8.831 1.202-13.186-.069l-.034-.009-.022-.006c-4.407-1.276-8.236-3.726-11.5-6.953-.025-.024-.05-.048-.073-.073-3.244-3.28-5.697-7.126-6.996-11.543l-.022-.077c-1.239-4.358-1.27-8.814-.057-13.186l.023-.08c1.275-4.441 3.742-8.289 7.005-11.551 1.924-1.924 4.002-3.619 6.244-5.042l.716-.452a92.48 92.48 0 0 1 5.286-3.054 313.509 313.509 0 0 0 6.409-3.582 96.005 96.005 0 0 0 4.84-3.05c.881-.59 1.8-1.221 2.758-1.893 2.79-1.968 6.031-4.52 9.737-7.697l.024-.021a176.143 176.143 0 0 0 6.496-5.843 33.028 33.028 0 0 1-.959-7.318 32.656 32.656 0 0 1 2.149-12.282l.026-.07c1.598-4.091 4.013-7.707 7.152-10.809 3.395-3.41 7.393-5.938 11.939-7.46l.042-.015Z" class="Vector"/>
    <path fill="#fff" fill-rule="evenodd" d="M77.492 165.149c-2.366-2.393-3.962-4.993-4.787-7.799-.798-2.806-.812-5.599-.041-8.377.797-2.779 2.38-5.351 4.745-7.717 1.513-1.513 3.095-2.793 4.746-3.838a81.832 81.832 0 0 1 5.447-3.178 315.85 315.85 0 0 0 6.644-3.714 103.585 103.585 0 0 0 5.314-3.347c.946-.633 1.926-1.305 2.939-2.017 3.081-2.174 6.548-4.911 10.399-8.212 3.152-2.682 6.622-5.873 10.409-9.573l.58-.567a23.543 23.543 0 0 1-.775-1.859l-.013-.034c-.974-2.644-1.486-5.332-1.535-8.064a23.747 23.747 0 0 1 1.568-8.955c1.128-2.888 2.834-5.46 5.117-7.716 2.476-2.504 5.324-4.292 8.543-5.365 3.246-1.1 6.602-1.472 10.069-1.114 1.582.15 3.131.459 4.644.925l-4.535 4.536-8.614 8.614a4.525 4.525 0 0 0 0 6.399l9.858 9.857a4.523 4.523 0 0 0 6.399 0l1.565-1.564 7.229-7.23 4.495-4.495a23.584 23.584 0 0 1 1.036 5.035c.358 3.466-.014 6.823-1.114 10.069-1.073 3.246-2.848 6.108-5.324 8.584-2.283 2.283-4.869 3.975-7.758 5.075a23.722 23.722 0 0 1-8.954 1.568c-3.082-.082-6.094-.729-9.038-1.939a22.72 22.72 0 0 1-.904-.398 249.622 249.622 0 0 0-6.324 6.664 170.326 170.326 0 0 0-3.831 4.339 177.99 177.99 0 0 0-4.278 5.172 114.694 114.694 0 0 0-3.934 5.228c-2.174 3.053-3.975 5.804-5.406 8.253a265.834 265.834 0 0 0-3.673 6.602 69.586 69.586 0 0 1-3.177 5.448 28.503 28.503 0 0 1-3.879 4.787c-2.339 2.365-4.911 3.934-7.717 4.704-2.779.798-5.571.784-8.377-.041-2.779-.798-5.365-2.38-7.758-4.746Zm8.17-8.088c.99 1.018 2.188 1.527 3.59 1.527 1.404 0 2.6-.509 3.59-1.527 1.019-.991 1.528-2.187 1.528-3.59s-.51-2.6-1.527-3.591c-.99-.99-2.187-1.485-3.59-1.485s-2.6.495-3.59 1.485c-.99.991-1.486 2.188-1.486 3.591s.495 2.599 1.485 3.59Z" class="Vector" clip-rule="evenodd"/>
  </g>
</svg>
