<svg xmlns="http://www.w3.org/2000/svg" fill="none" viewBox="0 0 180 180">
  <g class="WOT-logo-small">
    <path fill="#fff" fill-rule="evenodd" d="M145.52 38.972c.191.188.297.448.297.717v70.224c.001.269-.105.526-.293.717a593743.93 593743.93 0 0 1-54.81 54.804 1.012 1.012 0 0 1-1.43 0c-6.202-6.199-50.743-50.743-54.804-54.804a1.005 1.005 0 0 1-.297-.717V39.685c0-.272.106-.53.297-.72 2.888-2.876 25.894-25.791 28.774-28.663.189-.188.445-.294.712-.293h52.059c.269 0 .526.106.713.293 2.883 2.872 25.893 25.79 28.781 28.67h.001Zm-3.837 2.008c.051.123.077.254.077.387v66.868c0 .264-.106.526-.297.713l-50.748 50.746a1.014 1.014 0 0 1-1.102.22 1.015 1.015 0 0 1-.328-.22c-5.93-5.934-46.858-46.86-50.748-50.746a1.016 1.016 0 0 1-.293-.713V41.367a1.01 1.01 0 0 1 .297-.717c2.745-2.737 23.65-23.558 26.39-26.288a.996.996 0 0 1 .713-.297h48.707a.999.999 0 0 1 .714.297l26.398 26.29c.094.093.169.205.22.328Zm-7.226 12.036h-20.684c-.554 0-1.002.448-1.002 1.002v42.239c0 .264-.11.52-.297.708l-9.788 9.784a1 1 0 0 0-.004 1.413c4.868 4.892 9.736 9.785 14.602 14.679a1.003 1.003 0 0 0 1.418 0c2.99-2.985 14.476-14.471 16.464-16.459.187-.187.293-.444.293-.708V54.019c0-.555-.452-1.003-1.002-1.003Zm-.501-10.036a1.003 1.003 0 0 0-.216-1.095l-.086-.085-.005-.005-21.188-21.103a1.016 1.016 0 0 0-.708-.289h-43.51c-.265 0-.521.106-.709.29L46.26 41.884a1.004 1.004 0 0 0 .709 1.715H77.68a.675.675 0 0 1 .677.672v95.22c0 .265.106.522.293.709 1.507 1.507 8.399 8.395 10.643 10.635a1.002 1.002 0 0 0 1.418 0l10.635-10.635c.187-.187.293-.444.293-.709v-95.22a.675.675 0 0 1 .676-.672h30.716a1 1 0 0 0 .925-.62ZM67.518 96.965a1.005 1.005 0 0 1-.293-.708V54.02c0-.555-.449-1.002-1.002-1.002H45.546a1 1 0 0 0-1.001 1.002v51.655c0 .264.105.521.293.708a28474.7 28474.7 0 0 0 16.46 16.459 1.003 1.003 0 0 0 1.417 0c2.647-2.663 11.95-12.023 14.594-14.679a.993.993 0 0 0 .214-1.09.992.992 0 0 0-.218-.323l-.006-.006-.041-.042c-2.162-2.162-8.321-8.32-9.74-9.736Z" class="Vector" clip-rule="evenodd"/>
    <path fill="#000" d="M116.025.009c2.88 0 5.683 1.131 7.768 3.209l.001-.001c2.883 2.87 25.895 25.79 28.786 28.675h-.002a11.003 11.003 0 0 1 3.239 7.798v70.202a11.019 11.019 0 0 1-3.176 7.762l-.023.024-.023.023c-4.062 4.062-48.595 48.592-54.81 54.803a11.021 11.021 0 0 1-3.57 2.388 11.02 11.02 0 0 1-8.429 0 11.026 11.026 0 0 1-3.573-2.387c-6.215-6.212-50.745-50.744-54.805-54.804l.002-.002a11.005 11.005 0 0 1-2.387-3.565 11.006 11.006 0 0 1-.84-4.221V39.686c0-2.9 1.143-5.715 3.236-7.802l.005-.005c2.889-2.877 25.892-25.79 28.769-28.658l.01-.01A11.006 11.006 0 0 1 63.965.01l52.059-.001Zm-52.059 10c-.267 0-.523.104-.713.293-2.88 2.871-25.884 25.787-28.772 28.663a1.013 1.013 0 0 0-.298.72v70.228a1.008 1.008 0 0 0 .298.717c4.06 4.061 48.6 48.603 54.803 54.804a1.014 1.014 0 0 0 1.431 0c6.204-6.2 50.748-50.743 54.809-54.804.188-.191.293-.449.293-.717V39.689c0-.268-.106-.529-.297-.716-2.888-2.88-25.898-25.8-28.781-28.671a1.011 1.011 0 0 0-.714-.293H63.966Zm50.386 4.056a1.003 1.003 0 0 1 .713.297l26.398 26.29a1.014 1.014 0 0 1 .297.715v66.867c0 .265-.106.527-.297.714l-50.748 50.746a1.016 1.016 0 0 1-.715.296 1.01 1.01 0 0 1-.716-.296c-5.931-5.935-46.857-46.86-50.748-50.746a1.016 1.016 0 0 1-.293-.714V41.367a1.013 1.013 0 0 1 .298-.717c2.746-2.737 23.65-23.558 26.39-26.288a.997.997 0 0 1 .714-.297h48.707Zm-46.11 6.338c-.264 0-.52.106-.708.29L46.26 41.884a1.004 1.004 0 0 0 .709 1.715h30.712a.675.675 0 0 1 .676.672v95.22c0 .265.106.522.294.709 1.507 1.507 8.398 8.395 10.642 10.635a1.003 1.003 0 0 0 1.418 0l10.635-10.635c.187-.187.293-.444.293-.709v-95.22a.679.679 0 0 1 .676-.672h30.716a1.006 1.006 0 0 0 .709-1.715l-.085-.085-.006-.005a395933.91 395933.91 0 0 1-21.188-21.103 1.017 1.017 0 0 0-.708-.289h-43.51Zm45.531 32.614a1 1 0 0 0-1.001 1.002v42.238c0 .264-.111.52-.298.708l-9.788 9.784a1.002 1.002 0 0 0-.004 1.413c4.868 4.892 9.736 9.786 14.602 14.68a1.01 1.01 0 0 0 1.093.219.982.982 0 0 0 .324-.219c2.99-2.985 14.477-14.473 16.464-16.46.188-.188.294-.444.294-.708V54.019c0-.555-.452-1.002-1.002-1.002h-20.684Zm-68.227 0c-.553 0-1.002.447-1.002 1.002v51.655c0 .264.107.52.294.708a31863.04 31863.04 0 0 0 16.46 16.46 1.007 1.007 0 0 0 1.417 0c2.647-2.664 11.951-12.024 14.595-14.68a1.003 1.003 0 0 0 .214-1.09.996.996 0 0 0-.22-.323l-.005-.007-.04-.041c-2.163-2.162-8.322-8.321-9.741-9.736a1.005 1.005 0 0 1-.293-.708V54.019c0-.555-.449-1.002-1.002-1.002H45.546ZM68.23 96.255h.003l.124-.122v-.004l-.127.126Zm.01 0h.117v-.116l-.117.116Z" class="Vector (Stroke)"/>
    <path fill="#000" d="M133.978 66.378c4.443-1.5 9.047-2.003 13.725-1.53l.001-.001a32.12 32.12 0 0 1 6.42 1.28 8.898 8.898 0 0 1 3.672 14.791l-10.059 10.06 3.677 3.676 10.197-10.199.209-.202a8.896 8.896 0 0 1 14.549 3.763 32.492 32.492 0 0 1 1.417 6.851l.004.04a.5.5 0 0 1 .005.037c.473 4.69-.037 9.308-1.547 13.762l-.001-.001c-1.521 4.571-4.039 8.601-7.457 12.019-3.129 3.129-6.768 5.53-10.88 7.097a32.616 32.616 0 0 1-12.36 2.148 33.843 33.843 0 0 1-7.221-.979c-.774.823-1.52 1.625-2.234 2.408a163.27 163.27 0 0 0-3.63 4.11l-.02.024a171.201 171.201 0 0 0-4.066 4.915 107.394 107.394 0 0 0-3.631 4.823l-.022.03c-2.045 2.873-3.679 5.375-4.935 7.52a254.794 254.794 0 0 0-3.524 6.329l.001.001a78.63 78.63 0 0 1-3.551 6.085l.001.001c-1.434 2.244-3.129 4.324-5.048 6.248l.001.001c-3.252 3.29-7.117 5.751-11.59 7v.002l-.046.012-.053.016-.001-.002c-4.371 1.235-8.831 1.202-13.186-.069l-.034-.009-.022-.006c-4.407-1.276-8.236-3.726-11.5-6.953-.025-.024-.05-.048-.073-.073-3.244-3.28-5.697-7.126-6.996-11.543l-.022-.077c-1.239-4.358-1.27-8.814-.057-13.186l.023-.08c1.275-4.441 3.742-8.289 7.005-11.551 1.924-1.924 4.002-3.619 6.244-5.042l.716-.452a92.48 92.48 0 0 1 5.286-3.054 313.509 313.509 0 0 0 6.409-3.582 96.005 96.005 0 0 0 4.84-3.05c.881-.59 1.8-1.221 2.758-1.893 2.79-1.968 6.031-4.52 9.737-7.697l.024-.021a176.143 176.143 0 0 0 6.496-5.843 33.028 33.028 0 0 1-.959-7.318 32.656 32.656 0 0 1 2.149-12.282l.026-.07c1.598-4.091 4.013-7.707 7.152-10.809 3.395-3.41 7.393-5.938 11.939-7.46l.042-.015Z" class="Vector"/>
    <path fill="#fff" fill-rule="evenodd" d="M77.492 165.149c-2.366-2.393-3.962-4.993-4.787-7.799-.798-2.806-.812-5.599-.041-8.377.797-2.779 2.38-5.351 4.745-7.717 1.513-1.513 3.095-2.793 4.746-3.838a81.832 81.832 0 0 1 5.447-3.178 315.85 315.85 0 0 0 6.644-3.714 103.585 103.585 0 0 0 5.314-3.347c.946-.633 1.926-1.305 2.939-2.017 3.081-2.174 6.548-4.911 10.399-8.212 3.152-2.682 6.622-5.873 10.409-9.573l.58-.567a23.543 23.543 0 0 1-.775-1.859l-.013-.034c-.974-2.644-1.486-5.332-1.535-8.064a23.747 23.747 0 0 1 1.568-8.955c1.128-2.888 2.834-5.46 5.117-7.716 2.476-2.504 5.324-4.292 8.543-5.365 3.246-1.1 6.602-1.472 10.069-1.114 1.582.15 3.131.459 4.644.925l-4.535 4.536-8.614 8.614a4.525 4.525 0 0 0 0 6.399l9.858 9.857a4.523 4.523 0 0 0 6.399 0l1.565-1.564 7.229-7.23 4.495-4.495a23.584 23.584 0 0 1 1.036 5.035c.358 3.466-.014 6.823-1.114 10.069-1.073 3.246-2.848 6.108-5.324 8.584-2.283 2.283-4.869 3.975-7.758 5.075a23.722 23.722 0 0 1-8.954 1.568c-3.082-.082-6.094-.729-9.038-1.939a22.72 22.72 0 0 1-.904-.398 249.622 249.622 0 0 0-6.324 6.664 170.326 170.326 0 0 0-3.831 4.339 177.99 177.99 0 0 0-4.278 5.172 114.694 114.694 0 0 0-3.934 5.228c-2.174 3.053-3.975 5.804-5.406 8.253a265.834 265.834 0 0 0-3.673 6.602 69.586 69.586 0 0 1-3.177 5.448 28.503 28.503 0 0 1-3.879 4.787c-2.339 2.365-4.911 3.934-7.717 4.704-2.779.798-5.571.784-8.377-.041-2.779-.798-5.365-2.38-7.758-4.746Zm8.17-8.088c.99 1.018 2.188 1.527 3.59 1.527 1.404 0 2.6-.509 3.59-1.527 1.019-.991 1.528-2.187 1.528-3.59s-.51-2.6-1.527-3.591c-.99-.99-2.187-1.485-3.59-1.485s-2.6.495-3.59 1.485c-.99.991-1.486 2.188-1.486 3.591s.495 2.599 1.485 3.59Z" class="Vector" clip-rule="evenodd"/>
  </g>
</svg>
